<svg width="36" height="36" viewBox="0 0 36 36" fill="none" xmlns="http://www.w3.org/2000/svg">
<path d="M24.5628 17.53C26.5753 17.53 28.1941 15.8967 28.1941 13.8842C28.1941 11.8717 26.5753 10.2383 24.5628 10.2383C22.5503 10.2383 20.917 11.8717 20.917 13.8842C20.917 15.8967 22.5503 17.53 24.5628 17.53ZM13.6253 16.0717C16.0462 16.0717 17.9857 14.1175 17.9857 11.6967C17.9857 9.27582 16.0462 7.32166 13.6253 7.32166C11.2045 7.32166 9.25033 9.27582 9.25033 11.6967C9.25033 14.1175 11.2045 16.0717 13.6253 16.0717ZM24.5628 20.4467C21.8941 20.4467 16.542 21.7883 16.542 24.4571V27.7383H32.5837V24.4571C32.5837 21.7883 27.2316 20.4467 24.5628 20.4467ZM13.6253 18.9883C10.2274 18.9883 3.41699 20.6946 3.41699 24.0925V27.7383H13.6253V24.4571C13.6253 23.2175 14.1066 21.0446 17.0816 19.3967C15.8128 19.1342 14.5878 18.9883 13.6253 18.9883Z" fill="#1976D2"/>
</svg>
