<svg width="36" height="36" viewBox="0 0 36 36" fill="none" xmlns="http://www.w3.org/2000/svg">
<path d="M24.9548 16.0717C25.4506 16.0717 25.9318 16.13 26.4131 16.2029V9.17378L15.4756 4.40503L4.53809 9.17378V16.3342C4.53809 22.955 9.20475 29.1529 15.4756 30.655C16.2777 30.4654 17.0506 30.1884 17.8089 29.8529C16.8027 28.4238 16.2048 26.6884 16.2048 24.8217C16.2048 19.9946 20.1277 16.0717 24.9548 16.0717Z" fill="#00BCD4"/>
<path d="M24.9549 18.9884C21.732 18.9884 19.1216 21.5988 19.1216 24.8217C19.1216 28.0447 21.732 30.6551 24.9549 30.6551C28.1778 30.6551 30.7882 28.0447 30.7882 24.8217C30.7882 21.5988 28.1778 18.9884 24.9549 18.9884ZM24.9549 21.0009C25.8591 21.0009 26.5883 21.7447 26.5883 22.6342C26.5883 23.5238 25.8445 24.2676 24.9549 24.2676C24.0653 24.2676 23.3216 23.5238 23.3216 22.6342C23.3216 21.7447 24.0507 21.0009 24.9549 21.0009ZM24.9549 28.8322C23.5987 28.8322 22.4174 28.1613 21.6882 27.1259C21.7612 26.0759 23.8903 25.5509 24.9549 25.5509C26.0195 25.5509 28.1487 26.0759 28.2216 27.1259C27.4924 28.1613 26.3112 28.8322 24.9549 28.8322Z" fill="#00BCD4"/>
</svg>
