<svg width="36" height="36" viewBox="0 0 36 36" fill="none" xmlns="http://www.w3.org/2000/svg">
<path d="M24.5492 17.53C26.5617 17.53 28.1804 15.8967 28.1804 13.8842C28.1804 11.8717 26.5617 10.2383 24.5492 10.2383C22.5367 10.2383 20.9033 11.8717 20.9033 13.8842C20.9033 15.8967 22.5367 17.53 24.5492 17.53ZM13.6117 16.0717C16.0325 16.0717 17.9721 14.1175 17.9721 11.6967C17.9721 9.27582 16.0325 7.32166 13.6117 7.32166C11.1908 7.32166 9.23665 9.27582 9.23665 11.6967C9.23665 14.1175 11.1908 16.0717 13.6117 16.0717ZM24.5492 20.4467C21.8804 20.4467 16.5283 21.7883 16.5283 24.4571V27.7383H32.57V24.4571C32.57 21.7883 27.2179 20.4467 24.5492 20.4467ZM13.6117 18.9883C10.2137 18.9883 3.40332 20.6946 3.40332 24.0925V27.7383H13.6117V24.4571C13.6117 23.2175 14.0929 21.0446 17.0679 19.3967C15.7992 19.1342 14.5742 18.9883 13.6117 18.9883Z" fill="#00BCD4"/>
</svg>
