<svg width="36" height="36" viewBox="0 0 36 36" fill="none" xmlns="http://www.w3.org/2000/svg">
<path d="M25.2917 16.0717C25.7875 16.0717 26.2688 16.13 26.75 16.2029V9.17378L15.8125 4.40503L4.875 9.17378V16.3342C4.875 22.955 9.54167 29.1529 15.8125 30.655C16.6146 30.4654 17.3875 30.1884 18.1458 29.8529C17.1396 28.4238 16.5417 26.6884 16.5417 24.8217C16.5417 19.9946 20.4646 16.0717 25.2917 16.0717Z" fill="#1976D2"/>
<path d="M25.2913 18.9884C22.0684 18.9884 19.458 21.5988 19.458 24.8217C19.458 28.0447 22.0684 30.6551 25.2913 30.6551C28.5143 30.6551 31.1247 28.0447 31.1247 24.8217C31.1247 21.5988 28.5143 18.9884 25.2913 18.9884ZM25.2913 21.0009C26.1955 21.0009 26.9247 21.7447 26.9247 22.6342C26.9247 23.5238 26.1809 24.2676 25.2913 24.2676C24.4018 24.2676 23.658 23.5238 23.658 22.6342C23.658 21.7447 24.3872 21.0009 25.2913 21.0009ZM25.2913 28.8322C23.9351 28.8322 22.7538 28.1613 22.0247 27.1259C22.0976 26.0759 24.2268 25.5509 25.2913 25.5509C26.3559 25.5509 28.4851 26.0759 28.558 27.1259C27.8288 28.1613 26.6476 28.8322 25.2913 28.8322Z" fill="#1976D2"/>
</svg>
